<mxfile host="app.diagrams.net" modified="2022-09-10T14:26:31.988Z" agent="5.0 (Macintosh; Intel Mac OS X 10_15_7) AppleWebKit/605.1.15 (KHTML, like Gecko) Version/15.6.1 Safari/605.1.15" etag="KFq9TwCimBUpcINMLHV4" version="20.3.0" type="github">
  <diagram id="GyLMwl0qwMISzNsR8xZV" name="Seite-1">
    <mxGraphModel dx="1426" dy="800" grid="1" gridSize="10" guides="1" tooltips="1" connect="1" arrows="1" fold="1" page="1" pageScale="1" pageWidth="827" pageHeight="1169" math="0" shadow="0">
      <root>
        <mxCell id="0" />
        <mxCell id="1" parent="0" />
        <mxCell id="xMKIrSyRkFCIPuQcGgTb-4" value="Docker&lt;br&gt;192.168.178.10" style="rounded=0;whiteSpace=wrap;html=1;align=left;" vertex="1" parent="1">
          <mxGeometry x="210" y="380" width="260" height="150" as="geometry" />
        </mxCell>
        <mxCell id="xMKIrSyRkFCIPuQcGgTb-1" value="app" style="rounded=0;whiteSpace=wrap;html=1;" vertex="1" parent="1">
          <mxGeometry x="300" y="250" width="120" height="60" as="geometry" />
        </mxCell>
        <mxCell id="xMKIrSyRkFCIPuQcGgTb-2" value="postgres:8080" style="shape=cylinder3;whiteSpace=wrap;html=1;boundedLbl=1;backgroundOutline=1;size=15;" vertex="1" parent="1">
          <mxGeometry x="310" y="410" width="60" height="80" as="geometry" />
        </mxCell>
        <mxCell id="xMKIrSyRkFCIPuQcGgTb-5" value="" style="endArrow=classic;startArrow=classic;html=1;rounded=0;entryX=0.5;entryY=1;entryDx=0;entryDy=0;" edge="1" parent="1" source="xMKIrSyRkFCIPuQcGgTb-2" target="xMKIrSyRkFCIPuQcGgTb-1">
          <mxGeometry width="50" height="50" relative="1" as="geometry">
            <mxPoint x="200" y="610" as="sourcePoint" />
            <mxPoint x="250" y="560" as="targetPoint" />
          </mxGeometry>
        </mxCell>
      </root>
    </mxGraphModel>
  </diagram>
</mxfile>
